Simulation
nRows=20
nColumns=15
endheader
time  TH_x TH_y TH_z SC_y  SC_z  SC_x  AC_y  AC_z  AC_x  GH_y  GH_z  GH_yy  EL_x  PS_y
5.745  0.000000  0.000000  0.000000  -51.123113467892786  16.571057498264864  15.320393763856767  47.13112925421951  12.982469621668072  13.105531864540366  34.00445179929406  56.33814836875059  -43.79755932669143  18.580754113535907  120.000000
5.80245  0.000000  0.000000  0.000000  -49.92289835566881  15.954669593679265  12.828950960779185  46.68532437613557  12.56608555482438  12.188590172670867  34.95607132242379  55.43371974298974  -44.30925038140656  18.873421772856343  120.000000
5.8599  0.000000  0.000000  0.000000  -48.508208327719984  15.16519788875696  9.772917786395691  46.095218798241575  12.09119694645364  11.328788144276368  36.015416568152986  54.09855219429703  -44.62958214181291  19.26632096810665  120.000000
5.91735  0.000000  0.000000  0.000000  -46.919542688833175  14.167496715760215  6.281636257092751  45.34773338668692  11.620771903566206  10.596504446660196  37.077075229899094  52.30419942462664  -44.68782005849383  19.670145617757324  120.000000
5.9748  0.000000  0.000000  0.000000  -45.19713518176244  12.951484423942745  2.5115407953364426  44.4442519721571  11.24536710616036  10.045184360980883  38.0529443939842  50.03471275935105  -44.45680335979123  19.97637097223259  120.000000
6.03225  0.000000  0.000000  0.000000  -43.38052905521447  11.535404880090958  -1.3680419360228337  43.4150232264835  11.067079991819835  9.707572793600606  38.88918363778836  47.297418214630454  -43.96602015411448  20.090618964831886  120.000000
6.089700000000001  0.000000  0.000000  0.000000  -41.51476366596504  9.961456549412716  -5.189350925907166  42.320249074309146  11.178578500624385  9.59745611653375  39.580163941845164  44.13420695994957  -43.29945102320787  19.960598809494012  120.000000
6.14715  0.000000  0.000000  0.000000  -39.66319212438135  8.290825382834681  -8.80120324621975  41.23766764091542  11.639663185462727  9.71525788378217  40.17778257421059  40.63226966875888  -42.58253007078842  19.585104695585272  120.000000
6.2046  0.000000  0.000000  0.000000  -37.91328604393295  6.604037691583723  -12.087880030661076  40.250104563999905  12.460499395154427  10.04671984136676  40.79758367746244  36.92581919356899  -41.969050270186976  19.001768800788447  120.000000
6.26205  0.000000  0.000000  0.000000  -36.365969779377764  4.993370726480618  -14.979735601790193  39.42802887170132  13.594794784678083  10.56453757882694  41.620972508897324  33.177888085107746  -41.631477120107256  18.27126464440161  120.000000
6.3195  0.000000  0.000000  0.000000  -35.11363495988982  3.5475589140084396  -17.448799882766437  38.81120345117574  14.948892650018392  11.234096302456706  42.88008562012514  29.549855798677257  -41.750163456737965  17.467926406858734  120.000000
6.37695  0.000000  0.000000  0.000000  -34.21393657712752  2.3415122928192664  -19.497337421297704  38.40804726741653  16.407585102781592  12.013650482980061  44.823382913479925  26.17562327654781  -42.49513667555692  16.675499845165984  120.000000
6.4344  0.000000  0.000000  0.000000  -33.67435864979124  1.4239251492400156  -21.142862481582267  38.20143586945892  17.859530403053295  12.858367608333474  47.67067580833919  23.149501773396885  -44.00622451734828  15.979894540986056  120.000000
6.49185  0.000000  0.000000  0.000000  -33.4551681275416  0.8072194159052367  -22.408512649460125  38.15580933306145  19.215159864011426  13.723882235447288  51.55954335727428  20.52683268013154  -46.367860705496874  15.456014323008597  120.000000
6.549300000000001  0.000000  0.000000  0.000000  -33.48657502279014  0.4707725346760165  -23.321493488590924  38.22689042686043  20.414376130416347  14.566552941028506  56.499844896007154  18.330660397828442  -49.58448018512941  15.152840612405157  120.000000
6.60675  0.000000  0.000000  0.000000  -33.68809213633667  0.3695261190151129  -23.9151391489778  38.371652772528016  21.42740125931317  15.342042298937027  62.347924737327276  16.55953009109  -53.56063625795867  15.084499531670382  120.000000
6.6642  0.000000  0.000000  0.000000  -33.98376010311568  0.4469435679776013  -24.22930269047887  38.55083566576452  22.24876554117667  16.008803131489998  68.81131758748381  15.18657157825125  -58.0919109886471  15.23407051711897  120.000000
6.72165  0.000000  0.000000  0.000000  -34.315602699414676  0.644714116154577  -24.308450250885226  38.7281795135845  22.88560865928387  16.53698033771668  75.50398227754489  14.158473118324546  -62.893710875550376  15.562515551299537  120.000000
6.7791  0.000000  0.000000  0.000000  -34.64372342768458  0.9056146617119301  -24.19952516205095  38.878144171416785  23.349900041579318  16.909314222076013  82.04308475262997  13.40470678782305  -67.66906827718007  16.01187939867787  120.000000
6.83655  0.000000  0.000000  0.000000  -34.94187545287592  1.1817291548182385  -23.947488912017025  38.99273162457424  23.65381086424598  17.11939459509323  88.14215528327972  12.853453099793695  -72.18328017704175  16.506276132308198  120.000000
